<?xml version="1.0" encoding="UTF-8"?><svg xmlns="http://www.w3.org/2000/svg" xmlns:xlink="http://www.w3.org/1999/xlink" width="72px" height="72px" viewBox="0 0 72 72" version="1.1"><title>google-sheets</title><defs><linearGradient x1="50%" y1="0%" x2="50%" y2="100%" id="linearGradient-1"><stop stop-color="#0AA25A" offset="0%"/><stop stop-color="#05954F" offset="100%"/></linearGradient></defs><g id="providers-list" stroke="none" stroke-width="1" fill="none" fill-rule="evenodd"><g id="google-sheets"><rect id="Rectangle-1" fill="#F2F3F4" x="0" y="0" width="72" height="72" rx="4"/><g id="Group" transform="translate(11.000000, 6.000000)"><path d="M0 4.007A3.998 3.998 0 0 1 3.998 0H35l15 15v41.007A4 4 0 0 1 45.993 60H4.007A4.008 4.008 0 0 1 0 55.993V4.007z" id="Rectangle-47" fill="url(#linearGradient-1)"/><path d="M8 19h34v26H8V19zm2 2v6h8v-6h-8zm10 0v6h19.994v-6H20zm-10 8v6h8v-6h-8zm10 0v6h19.994v-6H20zm-10 8v6h8v-6h-8zm10 0v6h19.994v-6H20z" id="Rectangle-57" fill="#E6F5EE"/><path id="Rectangle-48" fill="#7BCFA9" d="M35 0l15 15H35z"/><path id="Rectangle-48" fill="#0D611A" opacity="0.416977612" style="mix-blend-mode:darken" d="M35 15l15 15V15z"/></g></g></g><metadata><rdf:RDF xmlns:rdf="http://www.w3.org/1999/02/22-rdf-syntax-ns#" xmlns:rdfs="http://www.w3.org/2000/01/rdf-schema#" xmlns:dc="http://purl.org/dc/elements/1.1/"><rdf:Description about="https://iconscout.com/legal#licenses" dc:title="google,sheets" dc:description="google,sheets" dc:publisher="Iconscout" dc:date="2017-09-26" dc:format="image/svg+xml" dc:language="en"><dc:creator><rdf:Bag><rdf:li>Luc Chaffard</rdf:li></rdf:Bag></dc:creator></rdf:Description></rdf:RDF></metadata></svg>