<?xml version="1.0" encoding="UTF-8" standalone="no"?><!-- Generator: Gravit.io --><svg xmlns="http://www.w3.org/2000/svg" xmlns:xlink="http://www.w3.org/1999/xlink" style="isolation:isolate" viewBox="0 0 1024 1024" width="1024pt" height="1024pt"><defs><clipPath id="_clipPath_OXRnO5SN5TjCdRxbdB0SuORirORC5lQ8"><rect width="1024" height="1024"/></clipPath></defs><g clip-path="url(#_clipPath_OXRnO5SN5TjCdRxbdB0SuORirORC5lQ8)"><g><g><path d="M 56.889 0 L 967.111 0 C 998.509 0 1024 25.491 1024 56.889 L 1024 967.111 C 1024 998.509 998.509 1024 967.111 1024 L 56.889 1024 C 25.491 1024 0 998.509 0 967.111 L 0 56.889 C 0 25.491 25.491 0 56.889 0 Z" style="stroke:none;fill:#F2F3F4;stroke-miterlimit:10;"/><g><linearGradient id="_lgradient_4" x1="0" y1="0.5" x2="6.123233995736766e-17" y2="1.5" gradientTransform="matrix(711.111,0,0,853.333,156.444,85.333)" gradientUnits="userSpaceOnUse"><stop offset="2.1136462559838474e-15%" stop-opacity="1" style="stop-color:rgb(10,162,90)"/><stop offset="100%" stop-opacity="1" style="stop-color:rgb(5,149,79)"/></linearGradient><path d=" M 156.444 142.322 C 156.41 127.219 162.386 112.724 173.053 102.033 C 183.72 91.341 198.202 85.333 213.305 85.333 L 654.222 85.333 L 867.556 298.667 L 867.556 881.877 C 867.529 896.965 861.51 911.425 850.823 922.075 C 840.135 932.725 825.655 938.693 810.567 938.667 L 213.433 938.667 C 181.962 938.659 156.452 913.149 156.444 881.678 L 156.444 142.322 Z " fill-rule="evenodd" fill="url(#_lgradient_4)"/><path d=" M 270.222 355.556 L 753.778 355.556 L 753.778 725.333 L 270.222 725.333 L 270.222 355.556 Z  M 298.667 384 L 298.667 469.333 L 412.444 469.333 L 412.444 384 L 298.667 384 Z  M 440.889 384 L 440.889 469.333 L 725.248 469.333 L 725.248 384 L 440.889 384 Z  M 298.667 497.778 L 298.667 583.111 L 412.444 583.111 L 412.444 497.778 L 298.667 497.778 Z  M 440.889 497.778 L 440.889 583.111 L 725.248 583.111 L 725.248 497.778 L 440.889 497.778 Z  M 298.667 611.556 L 298.667 696.889 L 412.444 696.889 L 412.444 611.556 L 298.667 611.556 Z  M 440.889 611.556 L 440.889 696.889 L 725.248 696.889 L 725.248 611.556 L 440.889 611.556 Z " fill-rule="evenodd" fill="rgb(230,245,238)"/><path d=" M 654.222 85.333 L 867.556 298.667 L 654.222 298.667 L 654.222 85.333 Z " fill-rule="evenodd" fill="rgb(123,207,169)"/><g opacity="0.416977612"><path d=" M 654.222 298.667 L 867.556 512 L 867.556 298.667 L 654.222 298.667 Z " fill-rule="evenodd" fill="rgb(13,97,26)"/></g></g></g></g></g></svg>