<?xml version="1.0" encoding="UTF-8" standalone="no"?><!-- Generator: Gravit.io --><svg xmlns="http://www.w3.org/2000/svg" xmlns:xlink="http://www.w3.org/1999/xlink" style="isolation:isolate" viewBox="0 0 180 250.515" width="180pt" height="250.515pt"><defs><clipPath id="_clipPath_BWDyStHeHlicQ1gQ575jf5GVn2evNFFR"><rect width="180" height="250.515"/></clipPath></defs><g clip-path="url(#_clipPath_BWDyStHeHlicQ1gQ575jf5GVn2evNFFR)"><path d=" M 180 236.038 C 180 244.032 173.517 250.515 165.523 250.515 L 14.477 250.515 C 6.483 250.515 0 244.032 0 236.038 L 0 14.538 C 0 6.543 6.483 0.061 14.477 0.061 L 111.595 0.061 L 180 70.124 L 180 236.038 Z " fill="rgb(35,165,102)"/><path d=" M 119.135 68.346 L 180 126.495 L 179.821 70.034 L 179.719 70.032 L 125.951 70.032 C 123.501 70.032 121.194 69.422 119.171 68.348 L 119.135 68.346 Z " fill="rgb(28,143,90)"/><path d=" M 180 70.032 L 125.951 70.032 C 117.957 70.032 111.474 63.549 111.474 55.555 L 111.474 0 L 180 70.032 Z " fill="rgb(142,209,177)"/><path d=" M 136.809 204.188 L 43.191 204.188 L 43.191 123.116 L 136.809 123.116 L 136.809 204.188 Z  M 95.789 134.698 L 95.789 149.175 L 125.227 149.175 L 125.227 134.698 L 95.789 134.698 Z  M 95.789 157.861 L 95.789 171.374 L 125.227 171.374 L 125.227 157.861 L 95.789 157.861 Z  M 95.789 180.061 L 95.789 192.607 L 125.227 192.607 L 125.227 180.061 L 95.789 180.061 Z  M 84.208 192.607 L 84.208 180.061 L 54.773 180.061 L 54.773 192.607 L 84.208 192.607 Z  M 84.208 171.374 L 84.208 157.861 L 54.773 157.861 L 54.773 171.374 L 84.208 171.374 Z  M 84.208 149.175 L 84.208 134.698 L 54.773 134.698 L 54.773 149.175 L 84.208 149.175 Z " fill-rule="evenodd" fill="rgb(255,255,255)"/></g></svg>