<?xml version="1.0" encoding="UTF-8" standalone="no"?><!-- Generator: Gravit.io --><svg xmlns="http://www.w3.org/2000/svg" xmlns:xlink="http://www.w3.org/1999/xlink" style="isolation:isolate" viewBox="0 0 1024 1024" width="1024pt" height="1024pt"><defs><clipPath id="_clipPath_rB8f8KiaVzvX4EpTSNwG13l3fAqRuE2X"><rect width="1024" height="1024"/></clipPath></defs><g clip-path="url(#_clipPath_rB8f8KiaVzvX4EpTSNwG13l3fAqRuE2X)"><g><circle vector-effect="non-scaling-stroke" cx="296.96" cy="296.96" r="296.96" fill="rgb(40,168,234)"/><circle vector-effect="non-scaling-stroke" cx="727.04" cy="727.04" r="296.96000000000004" fill="rgb(40,168,234)"/><circle vector-effect="non-scaling-stroke" cx="512" cy="512" r="491.52" fill="rgb(40,168,234)"/><path d=" M 384.531 502.668 C 365.316 490.009 349.285 473.083 337.688 453.208 C 326.485 432.223 320.954 408.676 321.642 384.897 C 320.789 354.718 331.086 325.283 350.566 302.217 C 370.805 279.053 396.819 261.665 425.962 251.822 C 457.665 240.627 491.067 235.007 524.688 235.211 C 546.689 235.003 568.668 236.689 590.381 240.25 C 605.912 242.651 621.166 246.59 635.918 252.009 C 649.47 256.599 661.703 264.413 671.566 274.778 C 678.835 283.304 682.749 294.186 682.576 305.389 C 683.105 317.141 678.943 328.622 671.005 337.305 C 663.476 345.318 652.882 349.733 641.891 349.437 C 634.411 349.382 627.03 347.727 620.243 344.582 C 603.534 337.103 586.321 330.805 568.731 325.733 C 552.535 321.466 535.839 319.395 519.091 319.575 C 497.279 318.766 475.698 324.274 456.942 335.438 C 440.806 345.237 431.293 363.051 432.122 381.911 C 432.005 394.058 436.623 405.773 444.997 414.572 C 454.956 424.898 466.722 433.311 479.712 439.396 Q 501.549 450.227 544.844 468.139 C 548.043 469.15 551.163 470.398 554.177 471.873 C 582.342 483.011 609.345 496.889 634.798 513.306 C 654.905 526.417 671.859 543.818 684.442 564.259 C 696.825 585.733 703.026 610.214 702.358 634.994 C 703.398 665.347 694.7 695.236 677.534 720.29 C 660.056 744.007 635.878 761.949 608.113 771.803 C 574.657 783.751 539.304 789.506 503.786 788.788 C 454.976 790.505 406.396 781.324 361.58 761.911 C 350.111 756.81 340.055 748.996 332.279 739.142 C 325.834 730.118 322.493 719.245 322.76 708.158 C 322.11 696.321 326.678 684.793 335.262 676.616 C 344.164 668.819 355.724 664.743 367.548 665.231 C 380.708 665.413 393.633 668.74 405.245 674.936 Q 426.888 685.767 439.4 691.176 C 448.929 695.168 458.798 698.291 468.888 700.507 C 481.327 703.239 494.035 704.554 506.769 704.425 C 529.284 706.027 551.688 700.049 570.412 687.443 C 584.635 676.314 592.624 659.013 591.872 640.969 C 591.9 628.345 587.092 616.189 578.437 606.999 C 567 595.216 553.616 585.494 538.874 578.259 Q 512.742 564.449 465.34 544.663 C 437.068 533.399 409.996 519.33 384.53 502.668" fill-rule="evenodd" fill="rgb(255,255,255)"/><g opacity="0.1"><path d=" M 389.734 14.95 C 376.749 10.603 363.472 7.181 350.003 4.71 C 185.94 57.362 57.362 185.94 4.71 350.003 C 7.181 363.472 10.603 376.749 14.95 389.734 C 18.581 401.491 23.17 412.93 28.672 423.936 C 65.101 222.643 222.643 65.101 423.936 28.672 C 412.93 23.171 401.491 18.582 389.734 14.95 Z " fill-rule="evenodd" fill="rgb(0,0,0)"/></g><g opacity="0.1"><path d=" M 389.734 14.95 C 204.877 60.544 60.544 204.877 14.95 389.734 C 18.581 401.491 23.17 412.93 28.672 423.936 C 65.101 222.643 222.643 65.101 423.936 28.672 C 412.93 23.171 401.491 18.582 389.734 14.95 Z " fill-rule="evenodd" fill="rgb(0,0,0)"/></g><g opacity="0.1"><path d=" M 1009.05 634.266 C 1005.419 622.509 1000.83 611.07 995.328 600.064 C 958.899 801.358 801.358 958.899 600.064 995.328 C 611.07 1000.83 622.509 1005.419 634.266 1009.05 C 647.251 1013.397 660.528 1016.819 673.997 1019.29 C 838.06 966.638 966.638 838.06 1019.29 673.997 C 1016.819 660.528 1013.397 647.251 1009.05 634.266 L 1009.05 634.266 Z " fill-rule="evenodd" fill="rgb(0,0,0)"/></g><g opacity="0.1"><path d=" M 995.328 600.064 C 958.899 801.358 801.358 958.899 600.064 995.328 C 611.07 1000.83 622.509 1005.419 634.266 1009.05 C 819.123 963.456 963.456 819.123 1009.05 634.266 C 1005.419 622.509 1000.83 611.07 995.328 600.064 L 995.328 600.064 Z " fill-rule="evenodd" fill="rgb(0,0,0)"/></g></g></g></svg>