<?xml version="1.0" encoding="UTF-8" standalone="no"?><!-- Generator: Gravit.io --><svg xmlns="http://www.w3.org/2000/svg" xmlns:xlink="http://www.w3.org/1999/xlink" style="isolation:isolate" viewBox="0 0 1024 1024" width="1024pt" height="1024pt"><defs><clipPath id="_clipPath_UYYpV3srvcnxSi41l9Y7UNbIl2AEo1Zs"><rect width="1024" height="1024"/></clipPath></defs><g clip-path="url(#_clipPath_UYYpV3srvcnxSi41l9Y7UNbIl2AEo1Zs)"><g><circle vector-effect="non-scaling-stroke" cx="512" cy="512" r="512" fill="rgb(255,0,0)"/><path d=" M 512 267.636 C 646.4 267.636 756.364 377.018 756.364 512 C 756.364 646.982 646.982 756.364 512 756.364 C 377.018 756.364 267.636 646.982 267.636 512 C 267.636 377.018 377.6 267.636 512 267.636 Z  M 512 244.364 C 364.218 244.364 244.364 364.218 244.364 512 C 244.364 659.782 364.218 779.636 512 779.636 C 659.782 779.636 779.636 659.782 779.636 512 C 779.636 364.218 659.782 244.364 512 244.364 L 512 244.364 Z " fill="rgb(255,255,255)"/><path d=" M 418.909 645.818 L 645.818 506.182 L 418.909 378.182 L 418.909 645.818 Z " fill="rgb(255,255,255)"/></g></g></svg>