<svg width="800" height="800" viewBox="0 0 800 800" version="1.1" xmlns="http://www.w3.org/2000/svg"><title>Duo_BicepCurl</title><g stroke="none" stroke-width="1" fill="none" fill-rule="evenodd"><g><g><g transform="rotate(31 -65.924 262.856)"><path d="M162.261 22.06l45.84 29.204a23.085 23.085 0 0 1 10.134 14.473l11.763 53.062a23.085 23.085 0 0 1-3.068 17.4l-29.203 45.84a23.085 23.085 0 0 1-14.473 10.134l-53.062 11.764a23.085 23.085 0 0 1-17.4-3.068l-45.84-29.203a23.085 23.085 0 0 1-10.134-14.473L45.054 104.13a23.085 23.085 0 0 1 3.069-17.4l29.202-45.84a23.085 23.085 0 0 1 14.473-10.134l53.063-11.763a23.085 23.085 0 0 1 17.4 3.068z" fill="#676767" fill-rule="nonzero"/><path d="M135.844 170.52l281.666-44.913c15.097-2.407 28.109 10.554 25.697 25.596-11.589 72.276-69.286 130.11-143.702 141.976-74.413 11.864-147.04-25.189-180.244-90.322-6.912-13.556 1.485-29.93 16.583-32.338z" fill="#58CC02" fill-rule="nonzero"/><rect fill="#58CC02" x="175.303" y="98.952" width="128" height="128" rx="64"/><g fill-rule="nonzero"><path d="M142.683 39.72l47.96 30.555a24.3 24.3 0 0 1 10.668 15.235l12.309 55.519a24.3 24.3 0 0 1-3.23 18.315l-30.554 47.961a24.3 24.3 0 0 1-15.235 10.668l-55.52 12.308a24.3 24.3 0 0 1-18.315-3.23l-47.96-30.554a24.3 24.3 0 0 1-10.668-15.235l-12.309-55.518a24.3 24.3 0 0 1 3.23-18.316l30.554-47.961a24.3 24.3 0 0 1 15.235-10.668l55.519-12.308a24.3 24.3 0 0 1 18.316 3.23z" fill="#7B7B7B"/><path d="M135.594 79.924l21.609 13.767a24.3 24.3 0 0 1 10.667 15.235l5.546 25.014a24.3 24.3 0 0 1-3.23 18.315l-13.766 21.61a24.3 24.3 0 0 1-15.235 10.667l-25.014 5.545a24.3 24.3 0 0 1-18.316-3.23l-21.609-13.766a24.3 24.3 0 0 1-10.667-15.234l-5.546-25.014a24.3 24.3 0 0 1 3.23-18.316l13.766-21.61A24.3 24.3 0 0 1 92.264 82.24l25.014-5.545a24.3 24.3 0 0 1 18.316 3.23z" fill="#676767"/></g><path d="M214.819 208.83c19.176 4.24 35.506-1.573 48.99-17.438" stroke="#3EB200" stroke-width="12" opacity=".742" stroke-linecap="round"/></g><g><path d="M430.78 180.105l36.341 76.045c1.886 4.057-.724 8.78-5.155 9.328-21.29 2.631-42.198-8.906-51.493-28.904-9.296-19.997-4.666-43.481 11.028-58.15 3.266-3.052 7.393-2.376 9.28 1.68z" fill="#8EE000" fill-rule="nonzero"/><path d="M459.239 241.35c12.032 25.718 45.491 35.852 69.494 21.152l-31.366 102.596c.073-.236-23.08-7.315-69.465-21.24 7.414-24.886 17.86-59.055 31.337-102.508z" fill="#8EE000"/><path d="M399.148 185.966l35.208 75.744c1.887 4.06-.723 8.785-5.154 9.332-21.29 2.627-42.205-8.923-51.507-28.934-9.302-20.011-4.678-43.507 11.014-58.18 3.266-3.053 8.551-2.022 10.439 2.038z" fill="#8EE000" fill-rule="nonzero"/><path d="M411.482 203.279l4.684 1.432c37.535 11.48 58.661 51.212 47.19 88.75l-13.332 43.61c-11.472 37.539-51.205 58.667-88.743 47.191-.001 0-.002 0-.002-.004l-4.684-1.433c-37.535-11.48-58.66-51.212-47.19-88.75l13.332-43.61c11.472-37.539 51.205-58.667 88.743-47.191.001 0 .003 0 .002.005z" fill="#8EE000"/><path d="M586.754 228.21l-73.007 40.582c-3.913 2.175-4.578 7.533-1.317 10.579 15.682 14.64 39.39 17.59 58.679 6.868 19.285-10.723 29.355-32.45 25.287-53.542-.847-4.39-5.732-6.663-9.642-4.487z" fill="#8EE000" fill-rule="nonzero"/><path d="M609.386 250.712l-73.006 40.582c-3.913 2.175-4.578 7.533-1.317 10.579 15.681 14.64 39.39 17.59 58.679 6.868 19.285-10.723 29.355-32.45 25.287-53.542-.848-4.39-5.733-6.663-9.643-4.487z" fill="#8EE000" fill-rule="nonzero"/><path d="M586.63 255.273l4.679 1.431c37.535 11.481 58.66 51.212 47.189 88.75l-13.33 43.61c-11.472 37.54-51.205 58.668-88.742 47.192-.003 0-.003 0-.006-.005l-4.34-1.327c-37.326-11.413-58.465-50.792-47.348-88.208L497.717 303c11.179-37.628 50.745-59.068 88.372-47.89l.54.163z" fill="#8EE000"/><path d="M403.852 228.992c27.456 8.395 42.91 37.458 34.516 64.915l-9.246 30.244c-8.393 27.455-37.454 42.908-64.909 34.515l-.002-.001c-27.457-8.395-42.91-37.458-34.516-64.915l9.245-30.243c8.393-27.455 37.454-42.908 64.91-34.515h.002zM579.98 282.845c27.456 8.395 42.909 37.458 34.517 64.915l-9.248 30.244c-8.392 27.455-37.454 42.907-64.907 34.515l-.003-.001c-27.456-8.395-42.91-37.458-34.517-64.915l9.244-30.244c8.395-27.455 37.455-42.908 64.91-34.515l.004.001z" fill="#FFF"/><path d="M559.973 320.357c12.943 3.957 20.228 17.658 16.27 30.601l-7.887 25.8c-3.955 12.944-17.655 20.23-30.601 16.272-12.943-3.957-20.228-17.658-16.272-30.602l7.89-25.8c3.955-12.943 17.654-20.229 30.597-16.272h.003zM399.468 271.281c12.944 3.957 20.229 17.658 16.272 30.602l-7.887 25.8c-3.957 12.943-17.658 20.228-30.601 16.272-12.945-3.958-20.23-17.659-16.273-30.603l7.888-25.8c3.956-12.943 17.657-20.228 30.6-16.271z" fill="#4B4B4B"/><path d="M411.265 297.872c-5.703.7-10.895-3.364-11.596-9.078-.702-5.714 3.352-10.914 9.055-11.614 5.703-.7 10.895 3.364 11.597 9.078.702 5.714-3.353 10.914-9.056 11.614z" fill="#FFF" fill-rule="nonzero"/><path d="M620.773 337.389L511.307 319.5l1.796-5.868c8.872-29.024 39.595-45.36 68.618-36.487l.004.001 8.38 2.563c24.396 7.459 38.127 33.283 30.668 57.68zM555.745 424.032l-44.734-15.401c-14.006-4.823-21.449-20.085-16.626-34.09v-.001l6.305-18.316 114.395 23.626-6.306 18.316c-7.504 21.787-31.247 33.367-53.034 25.866zM339.112 365.014l45.241 13.834c14.166 4.33 29.16-3.641 33.491-17.807l5.664-18.525-106.435-48.125-5.663 18.525c-6.736 22.036 5.666 45.36 27.702 52.098z" fill="#8EE000"/><path d="M420.163 350.3c5.68-18.577 25.6-28.592 44.22-22.899 18.619 5.693 28.886 24.939 23.207 43.516a40.928 40.928 0 0 1-.891 2.557l-67.229-20.556a35.47 35.47 0 0 1 .693-2.618z" fill="#FFC200"/><path d="M459.308 332.058l6.945 2.124a7.262 7.262 0 0 1 4.822 9.07 7.262 7.262 0 0 1-9.07 4.823l-6.945-2.124a7.264 7.264 0 0 1 4.247-13.893z" fill="#FFEB16"/><path d="M478.684 407.994l100.19-58.052c14.972-8.678 34.149-3.572 42.824 11.403l.052.086 71.89 124.97c8.61 14.97 3.489 34.084-11.453 42.744L582 587.198c-14.977 8.678-34.153 3.572-42.828-11.404-.018-.028-.033-.059-.049-.086l-71.89-124.97c-8.613-14.97-3.492-34.085 11.45-42.744z" fill="#58CC02"/><path d="M592.467 514.156c14.513 4.436 22.681 19.8 18.244 34.313l-13.553 44.34c-4.437 14.514-19.8 22.682-34.313 18.245-14.513-4.437-22.681-19.8-18.244-34.313l13.556-44.34c4.437-14.514 19.8-22.681 34.31-18.245z" fill="#58CC02"/><path d="M419.071 153.434c40.922 34.301 70.106 54.12 87.552 59.454 17.332 5.3 52.053 5.165 104.169-.402 35.157-3.755 66.704 21.702 70.46 56.86a64.088 64.088 0 0 1-2.435 25.516l-57.76 188.936c-30.575 100.018-136.438 156.31-236.455 125.733l-.01-.003c-100.018-30.582-156.311-136.452-125.734-236.472l57.862-189.274c10.337-33.813 46.128-52.845 79.941-42.508a64.025 64.025 0 0 1 22.41 12.16z" fill="#58CC02"/><path d="M430.78 180.105l36.341 76.045c1.886 4.057-.724 8.78-5.155 9.328-21.29 2.631-42.198-8.906-51.493-28.904-9.296-19.997-4.666-43.481 11.028-58.15 3.266-3.052 7.393-2.376 9.28 1.68z" fill="#89E219" fill-rule="nonzero"/><path d="M459.239 241.35c12.032 25.718 45.491 35.852 69.494 21.152l-31.366 102.596c.073-.236-23.08-7.315-69.465-21.24 7.414-24.886 17.86-59.055 31.337-102.508z" fill="#89E219"/><path d="M399.148 185.966l35.208 75.744c1.887 4.06-.723 8.785-5.154 9.332-21.29 2.627-42.205-8.923-51.507-28.934-9.302-20.011-4.678-43.507 11.014-58.18 3.266-3.053 8.551-2.022 10.439 2.038z" fill="#89E219" fill-rule="nonzero"/><path d="M411.482 203.279l4.684 1.432c37.535 11.48 58.661 51.212 47.19 88.75l-13.332 43.61c-11.472 37.539-51.205 58.667-88.743 47.191-.001 0-.002 0-.002-.004l-4.684-1.433c-37.535-11.48-58.66-51.212-47.19-88.75l13.332-43.61c11.472-37.539 51.205-58.667 88.743-47.191.001 0 .003 0 .002.005z" fill="#89E219"/><path d="M586.754 228.21l-73.007 40.582c-3.913 2.175-4.578 7.533-1.317 10.579 15.682 14.64 39.39 17.59 58.679 6.868 19.285-10.723 29.355-32.45 25.287-53.542-.847-4.39-5.732-6.663-9.642-4.487z" fill="#89E219" fill-rule="nonzero"/><path d="M609.386 250.712l-73.006 40.582c-3.913 2.175-4.578 7.533-1.317 10.579 15.681 14.64 39.39 17.59 58.679 6.868 19.285-10.723 29.355-32.45 25.287-53.542-.848-4.39-5.733-6.663-9.643-4.487z" fill="#89E219" fill-rule="nonzero"/><path d="M586.63 255.273l4.679 1.431c37.535 11.481 58.66 51.212 47.189 88.75l-13.33 43.61c-11.472 37.54-51.205 58.668-88.742 47.192-.003 0-.003 0-.006-.005l-4.34-1.327c-37.326-11.413-58.465-50.792-47.348-88.208L497.717 303c11.179-37.628 50.745-59.068 88.372-47.89l.54.163z" fill="#89E219"/><path d="M403.852 228.992c27.456 8.395 42.91 37.458 34.516 64.915l-9.246 30.244c-8.393 27.455-37.454 42.908-64.909 34.515l-.002-.001c-27.457-8.395-42.91-37.458-34.516-64.915l9.245-30.243c8.393-27.455 37.454-42.908 64.91-34.515h.002zM579.98 282.845c27.456 8.395 42.909 37.458 34.517 64.915l-9.248 30.244c-8.392 27.455-37.454 42.907-64.907 34.515l-.003-.001c-27.456-8.395-42.91-37.458-34.517-64.915l9.244-30.244c8.395-27.455 37.455-42.908 64.91-34.515l.004.001z" fill="#FFF"/><path d="M621.898 324.243l-107.78-18.214 1.054-3.442c8.75-28.623 39.045-44.734 67.669-35.984l.003.001 10.039 3.07c23.082 7.057 36.072 31.488 29.015 54.569z" fill="#89E219"/><path d="M559.973 320.357c12.943 3.957 20.228 17.658 16.27 30.601l-7.887 25.8c-3.955 12.944-17.655 20.23-30.601 16.272-12.943-3.957-20.228-17.658-16.272-30.602l7.89-25.8c3.955-12.943 17.654-20.229 30.597-16.272h.003z" fill="#122431"/><path d="M536.512 343.007c-8.285 1.018-15.829-4.888-16.846-13.189-1.02-8.302 4.87-15.856 13.154-16.874 8.289-1.016 15.83 4.888 16.85 13.19 1.02 8.302-4.873 15.855-13.158 16.873z" fill="#FFF" fill-rule="nonzero"/><path d="M399.468 271.281c12.944 3.957 20.229 17.658 16.272 30.602l-7.887 25.8c-3.957 12.943-17.658 20.228-30.601 16.272-12.945-3.958-20.23-17.659-16.273-30.603l7.888-25.8c3.956-12.943 17.657-20.228 30.6-16.271z" fill="#122431"/><path d="M378.735 295.606c-8.286 1.018-15.83-4.887-16.848-13.189-1.02-8.301 4.87-15.856 13.156-16.873 8.286-1.017 15.829 4.888 16.848 13.189 1.02 8.301-4.87 15.856-13.156 16.873z" fill="#FFF" fill-rule="nonzero"/><path d="M555.745 424.032l-44.734-15.401c-14.006-4.823-21.449-20.085-16.626-34.09v-.001l6.305-18.316 114.395 23.626-6.306 18.316c-7.504 21.787-31.247 33.367-53.034 25.866z" fill="#89E219"/><path d="M324.886 146.96L687.81 257.928c3.847 1.176 6.213 4.598 5.285 7.643l-12.482 40.827c-.933 3.044-4.806 4.558-8.657 3.38L309.035 198.813c-3.849-1.177-6.215-4.6-5.285-7.643l12.482-40.827c.931-3.045 4.805-4.558 8.654-3.382z" fill="#FF4B4B"/><path fill="#FFF" d="M311.609 158.441l380.665 116.392-6.1 19.95L305.51 178.391z"/><path d="M339.112 365.014l45.241 13.834c14.166 4.33 29.16-3.641 33.491-17.807l5.664-18.525-106.435-48.125-5.663 18.525c-6.736 22.036 5.666 45.36 27.702 52.098z" fill="#89E219"/><path d="M366.783 460.78l45.584 13.921c2.444.744 3.484 3.535 2.054 5.512-6.87 9.49-19.655 13.587-31.698 9.91-12.042-3.68-20.349-14.216-20.73-25.919-.078-2.438 2.347-4.171 4.79-3.424zM446.323 485.102l45.585 13.917c2.445.748 3.483 3.538 2.054 5.515-6.868 9.487-19.653 13.584-31.697 9.907-12.043-3.677-20.348-14.216-20.729-25.918-.08-2.436 2.345-4.169 4.787-3.421zM394.792 511.415l45.583 13.92c2.446.746 3.485 3.535 2.056 5.513-6.87 9.49-19.655 13.587-31.698 9.91-12.044-3.681-20.35-14.216-20.73-25.92-.079-2.438 2.346-4.17 4.789-3.423z" fill="#89E219" fill-rule="nonzero"/><path d="M471.714 332.341c14.903 4.855 23.058 20.842 18.233 35.734l-2.393 7.387-.018.056c-4.844 14.842-20.82 22.95-35.681 18.108-14.902-4.855-23.06-20.842-18.233-35.734l2.393-7.387.018-.056c4.844-14.842 20.819-22.95 35.68-18.108z" fill="#F49000"/><path d="M498.449 374.17l-.7 2.166-39.516-5.837-35.39-18.566.702-2.167c8.68-16.055 28.706-24.182 46.212-18.48 19.646 6.401 31.085 24.78 28.692 42.883z" fill="#FFC200" fill-rule="nonzero"/><path d="M478.986 344.718a5.62 5.62 0 0 1 .97 7.885 5.617 5.617 0 0 1-7.886.965c-3.806-2.975-8.006-4.346-12.824-4.188-3.1.102-5.699-2.329-5.804-5.43a5.611 5.611 0 0 1 5.425-5.799c7.453-.245 14.234 1.969 20.119 6.567z" fill="#FFDE00" fill-rule="nonzero"/></g></g><path d="M328.065 653.728c0 13.05-10.573 23.63-23.614 23.63h-37.718c-13.042 0-23.614-10.58-23.614-23.63 0-13.052 10.572-23.63 23.614-23.63h37.718c13.041 0 23.614 10.578 23.614 23.63zM546.574 653.354c0 13.05-10.572 23.63-23.614 23.63h-37.717c-13.042 0-23.615-10.58-23.615-23.63 0-13.052 10.573-23.63 23.615-23.63h37.717c13.042 0 23.614 10.578 23.614 23.63z" fill="#F49000"/><path d="M603.263 677.119c7.874 0 14.256 6.389 14.256 14.266 0 7.878-6.382 14.263-14.256 14.263H184.452c-7.873 0-14.256-6.385-14.256-14.263 0-7.877 6.383-14.266 14.256-14.266h418.811z" fill="#AFAFAF" opacity=".3"/></g></g></svg>