<svg xmlns="http://www.w3.org/2000/svg" xmlns:xlink="http://www.w3.org/1999/xlink" viewBox="0 0 66.395 66.395" fill="#fff" fill-rule="evenodd" stroke="#000" stroke-linecap="round" stroke-linejoin="round"><use xlink:href="#E" x="1.198" y="1.198"/><defs><radialGradient r="100%" cy="1262%" cx="441%" fy="1262%" fx="441%" id="A"><stop offset="0%" stop-color="#fff101"/><stop offset="100%" stop-color="#e6da1a"/></radialGradient><linearGradient y2="16.15%" x2="99.44%" y1="54.84%" x1="0.67%" id="B"><stop offset="0%" stop-color="#cfdc5e"/><stop offset="100%" stop-color="#bfca65"/></linearGradient><linearGradient y2="-3.35%" x2="99.45%" y1="74.32%" x1="0.69%" id="C"><stop offset="0%" stop-color="#cfdc5e"/><stop offset="100%" stop-color="#bfca65"/></linearGradient><linearGradient y2="22.94%" x2="81.92%" y1="69.10%" x1="32.04%" id="D"><stop offset="0%" stop-color="#d91963"/><stop offset="100%" stop-color="#981245"/></linearGradient></defs><symbol id="E" overflow="visible"><g stroke="none"><path d="M32 0c17.665 0 31.988 14.315 32 31.98 0 17.66-14.332 31.968-32 31.968S0 49.636 0 31.98C.01 14.314 14.335-.001 32 0z" fill="url(#A)"/><path d="M63.442 37.914C59.91 40.51 56.28 43.4 53.12 46.36c-7.178 6.738-11.305 12.01-15.9 17.154a32 32 0 0 0 26.219-25.601z" fill="#88a03e"/><path d="M20.98 9.96L.036 33.402c.164 3.823 1.017 7.586 2.517 11.106L30.1 1.923 20.98 9.95" fill="url(#B)"/><path d="M.216 28.274C.074 29.503.002 30.74 0 31.977l.036 1.428L20.98 9.96.216 28.274" fill="#88a03e"/><path d="M.275 27.836l27.92-27.6A32 32 0 0 0 .275 27.836z" fill="url(#C)"/><path d="M28.13.234L.245 27.836l-.04.438 29.88-26.34L2.558 44.525l.84 1.796.192.37.917 1.65.048.096 1.107 1.708.192.263 1.063 1.42.18.225 1.34 1.557.033.033 1.384 1.406.216.206c1 .94 2.06 1.82 3.173 2.628l.16.112 1.717 1.147a31.85 31.85 0 0 0 3.813 2.024l.086.04a31.77 31.77 0 0 0 4.093 1.485l.058.02c2.17.617 4.4 1.004 6.654 1.154.09-18.38 6.424-41.335 16.172-60.65C41.77 1.156 36.957.002 31.94.002c-.767 0-3.138.12-3.808.235" fill="url(#D)"/></g></symbol></svg>