<?xml version="1.0" encoding="UTF-8" standalone="no"?>
<svg
   xmlns:dc="http://purl.org/dc/elements/1.1/"
   xmlns:cc="http://creativecommons.org/ns#"
   xmlns:rdf="http://www.w3.org/1999/02/22-rdf-syntax-ns#"
   xmlns:svg="http://www.w3.org/2000/svg"
   xmlns="http://www.w3.org/2000/svg"
   xmlns:sodipodi="http://sodipodi.sourceforge.net/DTD/sodipodi-0.dtd"
   xmlns:inkscape="http://www.inkscape.org/namespaces/inkscape"
   id="Layer_1"
   data-name="Layer 1"
   viewBox="0 0 512 512"
   version="1.1"
   sodipodi:docname="Red Hat-scaled.svg"
   width="512"
   height="512"
   inkscape:version="0.92.4 (5da689c313, 2019-01-14)">
  <metadata
     id="metadata6910">
    <rdf:RDF>
      <cc:Work
         rdf:about="">
        <dc:format>image/svg+xml</dc:format>
        <dc:type
           rdf:resource="http://purl.org/dc/dcmitype/StillImage" />
        <dc:title>RedHat-Logo-Hat-Color</dc:title>
      </cc:Work>
    </rdf:RDF>
  </metadata>
  <sodipodi:namedview
     pagecolor="#ffffff"
     bordercolor="#666666"
     borderopacity="1"
     objecttolerance="10"
     gridtolerance="10"
     guidetolerance="10"
     inkscape:pageopacity="0"
     inkscape:pageshadow="2"
     inkscape:window-width="3840"
     inkscape:window-height="1976"
     id="namedview6908"
     showgrid="false"
     inkscape:zoom="1.6275862"
     inkscape:cx="139.93008"
     inkscape:cy="244.5339"
     inkscape:window-x="1920"
     inkscape:window-y="56"
     inkscape:window-maximized="1"
     inkscape:current-layer="Layer_1" />
  <defs
     id="defs6899">
    <style
       id="style6897">.cls-1{fill:#e00;}</style>
  </defs>
  <title
     id="title6901">RedHat-Logo-Hat-Color</title>
  <g
     id="g15092"
     transform="translate(160.325,-183.5)">
    <path
       style="stroke-width:2.6897819"
       inkscape:connector-curvature="0"
       id="path6903"
       d="m 262.69701,412.89806 a 37.656948,37.656948 0 0 1 0.83383,9.19905 c 0,40.02396 -48.68505,46.96359 -82.33422,46.96359 -130.830997,0 -228.470083,-81.31211 -228.470083,-106.21949 a 17.295298,17.295298 0 0 1 0.591752,-5.21817 l -9.844602,24.36942 a 49.626478,49.626478 0 0 0 -4.061571,19.7161 c 0,48.71195 110.281061,122.33129 236.001474,122.33129 55.65159,0 97.98875,-20.87271 97.98875,-58.55656 0,-2.90496 0,-5.21817 -4.65332,-27.24749 z" />
    <path
       style="fill:#ee0000;stroke-width:2.6897819"
       inkscape:connector-curvature="0"
       id="path6905"
       d="m 181.19662,469.0607 c 33.64917,0 82.33422,-6.93963 82.33422,-46.96359 a 37.656948,37.656948 0 0 0 -0.83383,-9.19905 l -20.03887,-87.04135 c -4.62643,-19.15125 -8.688,-27.83924 -42.31027,-44.65038 -26.09089,-13.34132 -82.92598,-35.37063 -99.73712,-35.37063 -15.654531,0 -20.200263,20.17336 -38.86735,20.17336 -17.967743,0 -31.309062,-15.06278 -48.120199,-15.06278 -16.1386922,0 -26.65574,11.00121 -34.778881,33.62228 0,0 -22.621067,63.80163 -25.526031,73.05448 a 17.295298,17.295298 0 0 0 -0.591752,5.21817 c 0,24.79979 97.639086,106.1119 228.470083,106.1119 m 87.49861,-30.60972 c 4.65332,22.02932 4.65332,24.34253 4.65332,27.2475 0,37.65694 -42.33717,58.55655 -97.98876,58.55655 -125.774204,0.0807 -235.947674,-73.61933 -235.947674,-122.33129 a 49.626478,49.626478 0 0 1 4.061571,-19.7161 c -45.242137,2.25942 -103.798687,10.32877 -103.798687,62.02638 0,84.67433 200.630838,189.03787 359.48936,189.03787 121.79333,0 152.51064,-55.08673 152.51064,-98.58051 0,-34.21402 -29.5876,-73.05448 -82.92598,-96.2404"
       class="cls-1" />
  </g>
</svg>
