<?xml version="1.0" encoding="UTF-8"?>
<svg width="601px" height="142px" viewBox="0 0 601 142" version="1.1" xmlns="http://www.w3.org/2000/svg" xmlns:xlink="http://www.w3.org/1999/xlink">
    <!-- Generator: Sketch 51.3 (57544) - http://www.bohemiancoding.com/sketch -->
    <title>Group</title>
    <desc>Created with Sketch.</desc>
    <defs></defs>
    <g id="Page-1" stroke="none" stroke-width="1" fill="none" fill-rule="evenodd">
        <g id="1583527895-red-hat-2019-vector-logo" fill-rule="nonzero">
            <g id="Group">
                <path d="M124.9,82.3 C137.2,82.3 154.9,79.8 154.9,65.2 C154.9,64.1 154.8,62.9 154.6,61.8 L147.3,30.1 C145.6,23.1 144.1,20 131.9,13.8 C122.4,8.9 101.7,0.9 95.5,0.9 C89.8,0.9 88.1,8.3 81.3,8.3 C74.7,8.3 69.9,2.8 63.8,2.8 C57.9,2.8 54.1,6.8 51.1,15.1 C51.1,15.1 42.9,38.4 41.8,41.7 C41.6,42.3 41.6,43 41.6,43.6 C41.6,52.6 77.2,82.2 124.9,82.3 M156.8,71.1 C158.5,79.1 158.5,80 158.5,81 C158.5,94.7 143.1,102.3 122.8,102.3 C76.9,102.3 36.8,75.5 36.8,57.7 C36.8,55.2 37.3,52.8 38.3,50.5 C21.8,51.3 0.5,54.3 0.5,73.1 C0.5,104 73.6,142 131.6,142 C176,142 187.2,121.9 187.2,106.1 C187.1,93.7 176.3,79.5 156.8,71.1" id="Shape" fill="#EE0000"></path>
                <path d="M156.8,71.1 C158.5,79.1 158.5,80 158.5,81 C158.5,94.7 143.1,102.3 122.8,102.3 C76.9,102.3 36.8,75.5 36.8,57.7 C36.8,55.2 37.3,52.8 38.3,50.5 L41.9,41.6 C41.7,42.2 41.7,42.8 41.7,43.5 C41.7,52.5 77.3,82.2 125,82.2 C137.3,82.2 155,79.7 155,65.1 C155,64 154.9,62.8 154.7,61.7 L156.8,71.1 Z" id="Shape" fill="#000000"></path>
                <path d="M568.5,91.4 C568.5,103.1 575.5,108.7 588.3,108.7 C592.2,108.6 596.1,108 600,107.1 L600,93.6 C597.6,94.4 595,94.8 592.5,94.7 C587.2,94.7 585.3,93.1 585.3,88.1 L585.3,67.4 L600.6,67.4 L600.6,53.5 L585.3,53.5 L585.3,35.8 L568.6,39.4 L568.6,53.4 L557.5,53.4 L557.5,67.3 L568.5,67.3 L568.5,91.4 Z M516.5,91.7 C516.5,88.1 520.1,86.3 525.6,86.3 C528.9,86.3 532.3,86.7 535.5,87.5 L535.5,94.5 C532.3,96.2 528.7,97.1 525.1,97.1 C519.7,97.2 516.5,95.1 516.5,91.7 Z M521.6,108.9 C527.5,108.9 532.2,107.7 536.7,104.7 L536.7,108 L553.2,108 L553.2,73 C553.2,59.7 544.2,52.4 529.3,52.4 C520.9,52.4 512.7,54.4 503.8,58.4 L509.8,70.7 C516.2,68 521.6,66.4 526.3,66.4 C533.2,66.4 536.7,69.1 536.7,74.5 L536.7,77.2 C532.7,76.2 528.5,75.6 524.3,75.7 C510.3,75.7 501.8,81.6 501.8,92.1 C501.8,101.7 509.4,109 521.6,108.9 Z M430.9,108 L448.6,108 L448.6,79.7 L478.3,79.7 L478.3,108 L496.1,108 L496.1,35.8 L478.4,35.8 L478.4,63.5 L448.7,63.5 L448.7,35.8 L431,35.8 L430.9,108 Z M363.4,80.7 C363.4,72.9 369.6,66.9 377.7,66.9 C381.9,66.8 386.1,68.3 389.2,71.1 L389.2,90.2 C386.1,93.1 381.9,94.7 377.7,94.6 C369.7,94.5 363.4,88.6 363.4,80.7 Z M389.5,108.1 L406,108.1 L406,32.3 L389.3,35.9 L389.3,56.4 C385.1,54 380.3,52.7 375.4,52.8 C359.5,52.8 347,65.1 347,80.7 C346.8,96 359.1,108.6 374.4,108.7 C374.6,108.7 374.7,108.7 374.9,108.7 C380.2,108.7 385.3,107.1 389.5,104 L389.5,108.1 Z M313.7,66.1 C319,66.1 323.4,69.5 325.1,74.8 L302.3,74.8 C304.1,69.3 308.2,66.1 313.7,66.1 Z M285.6,80.8 C285.6,96.7 298.6,109.1 315.3,109.1 C324.5,109.1 331.2,106.6 338.1,100.8 L327.1,91 C324.5,93.7 320.7,95.1 316.2,95.1 C310.4,95.3 305,91.8 302.8,86.4 L341.7,86.4 L341.7,82.3 C341.7,65 330,52.5 314.2,52.5 C298.7,52.3 286,64.6 285.8,80.1 C285.6,80.3 285.6,80.6 285.6,80.8 Z M256.9,51 C262.8,51 266.1,54.7 266.1,59.1 C266.1,63.5 262.8,67.2 256.9,67.2 L239.4,67.2 L239.4,51 L256.9,51 Z M221.6,108 L239.3,108 L239.3,81.7 L252.8,81.7 L266.4,108 L286.3,108 L270.4,79.1 C278.7,75.7 284,67.7 284,58.8 C284,45.8 273.8,35.8 258.5,35.8 L221.5,35.8 L221.5,108 L221.6,108 Z" id="Shape" fill="#000000"></path>
            </g>
        </g>
    </g>
</svg>