<?xml version="1.0" encoding="UTF-8" standalone="no"?><!-- Generator: Gravit.io --><svg xmlns="http://www.w3.org/2000/svg" xmlns:xlink="http://www.w3.org/1999/xlink" style="isolation:isolate" viewBox="0 0 255.77 255.77" width="255.77pt" height="255.77pt"><defs><clipPath id="_clipPath_kvZ96Jh8ErdN5MjRRGrslEm1x2NFdous"><rect width="255.77" height="255.77"/></clipPath></defs><g clip-path="url(#_clipPath_kvZ96Jh8ErdN5MjRRGrslEm1x2NFdous)"><g><g><ellipse vector-effect="non-scaling-stroke" cx="151.5712817411157" cy="163.40013555911185" rx="92.95159539524741" ry="90.49775947224825" fill="rgb(78,74,74)"/><g><linearGradient id="_lgradient_0" x1="0.08916657504558934" y1="-0.002372531181706994" x2="0.4121184659716835" y2="0.812695048635413" gradientTransform="matrix(82.357,0,0,150.981,95.375,96.277)" gradientUnits="userSpaceOnUse"><stop offset="0%" stop-opacity="1" style="stop-color:rgb(255,255,255)"/><stop offset="14.7%" stop-opacity="0.88679999" style="stop-color:rgb(255,255,255)"/><stop offset="100%" stop-opacity="0.23" style="stop-color:rgb(255,255,255)"/></linearGradient><path d=" M 99.394 96.645 C 99.394 96.645 94.848 98.738 95.425 107.037 C 96.003 115.337 99.034 119.775 103.472 125.404 C 107.91 131.033 112.457 137.095 111.483 141.533 C 110.508 145.972 107.423 173.449 138.166 184.13 L 102.822 210.706 C 102.822 210.706 104.663 216.66 111.266 224.021 L 135.045 244.661 C 135.045 244.661 126.674 244.156 120.612 241.63 C 120.612 241.63 126.385 247.259 136.705 247.186 L 142.406 247.259 L 114.73 217.85 C 114.73 217.85 111.59 213.124 117.364 208.938 C 123.138 204.752 148.829 184.473 148.829 184.473 C 148.829 184.473 168.206 185.592 177.732 170.653 C 177.732 170.653 153.592 191.112 135.406 175.668 C 117.22 160.225 115.921 135.544 115.921 135.544 C 115.921 135.544 115.813 130.925 112.89 127.569 C 109.967 124.213 111.916 109.924 111.916 109.924 C 111.916 109.924 108.415 93.65 99.394 96.645 L 99.394 96.645 Z " fill="url(#_lgradient_0)"/><linearGradient id="_lgradient_1" x1="-0.06326331556182874" y1="-3.434150154681131" x2="0.7924301751746756" y2="-1.2745461536420142" gradientTransform="matrix(49.591,0,0,19.483,183.361,132.117)" gradientUnits="userSpaceOnUse"><stop offset="0%" stop-opacity="1" style="stop-color:rgb(255,255,255)"/><stop offset="14.7%" stop-opacity="0.88679999" style="stop-color:rgb(255,255,255)"/><stop offset="100%" stop-opacity="0.23" style="stop-color:rgb(255,255,255)"/></linearGradient><path d=" M 183.361 133.415 C 183.361 133.415 211.29 135.363 220.383 140.451 C 229.476 145.539 226.878 139.477 225.579 135.904 C 224.28 132.332 231.533 129.518 231.966 136.013 C 232.399 142.508 233.048 149.003 232.94 150.843 C 232.94 150.843 231.316 140.126 229.909 137.203 C 228.502 134.281 228.177 136.229 229.476 141.425 C 230.775 146.621 231.208 149.003 230.559 151.601 L 195.16 140.451 C 195.16 140.451 184.48 140.09 183.361 133.415 Z " fill="url(#_lgradient_1)"/></g></g><g><path d=" M 122.308 242.748 C 122.308 242.748 126.096 247.619 137.571 246.212 L 156.623 252.599 C 156.623 252.599 132.808 257.903 122.308 242.748 Z " fill="rgb(17,43,72)"/><line x1="97.735" y1="91.089" x2="87.631" y2="99.171"/><path d=" M 135.749 186.169 L 136.182 184.6 C 136.182 184.6 120.684 178.988 114.405 166.756 C 108.127 154.524 108.668 143.698 109.317 139.801 C 109.317 139.801 108.632 137.096 105.962 135.977 C 103.292 134.858 102.498 157.771 110.833 169.462 C 119.168 181.153 134.648 187.54 134.648 187.54 L 135.749 186.169 Z " fill="rgb(42,75,114)"/><path d=" M 129.669 191.762 C 129.669 191.762 108.343 208.216 104.446 214.17 C 100.549 220.124 104.158 224.021 104.158 224.021 C 104.158 224.021 110.725 232.248 116.426 237.228 C 122.127 242.207 133.674 253.681 148.937 252.815 L 150.615 251.571 L 155.216 253.303 C 155.216 253.303 151.698 257.308 140.061 255.089 C 131.098 253.38 110.725 241.63 100.621 228.206 C 90.518 214.783 101.632 209.732 112.746 200.927 C 123.859 192.123 128.19 190.824 128.19 190.824 L 129.669 191.762 L 129.669 191.762 Z " fill="rgb(42,75,114)"/><path d=" M 235.376 136.175 C 235.376 136.175 234.997 137.637 228.718 137.276 C 228.718 137.276 208.692 131.141 195.377 130.384 C 182.062 129.626 181.521 126.739 179.14 122.987 C 176.758 119.234 160.953 107.542 143.056 109.419 C 125.158 111.296 113.648 129.193 113.648 129.193 L 111.158 128.219 L 114.261 121.616 C 114.261 121.616 124.292 105.089 146.231 103.79 C 168.17 102.491 181.016 111.44 187.078 118.801 C 193.14 126.162 214.934 125.152 228.791 130.492 C 228.791 130.492 235.393 132.188 235.376 136.175 Z " fill="rgb(22,46,94)"/><path d=" M 98.547 92.442 C 98.547 92.442 94.433 88.761 91.131 93.199 C 87.83 97.638 90.806 107.759 93.332 112.666 C 95.858 117.574 98.601 122.157 100.062 124.105 C 100.062 124.105 95.786 120.208 91.997 114.579 C 88.209 108.95 85.719 103.213 87.343 95.635 C 88.966 88.058 95.967 88.256 98.276 89.068 L 98.547 92.442 Z " fill="rgb(42,75,114)"/><path d=" M 237.974 153.549 C 237.974 153.549 241.059 153.441 240.482 148.822 C 239.904 144.204 237.595 127.623 226.77 110.411 C 226.77 110.411 236.295 118.945 242.069 142.905 C 247.843 166.864 237.974 153.549 237.974 153.549 L 237.974 153.549 Z " fill="rgb(127,132,138)"/><path d=" M 189.928 134.678 C 189.928 134.678 189.189 136.752 188.882 137.456 C 188.882 137.456 195.961 155.977 181.163 175.71 L 182.17 176.39 C 182.17 176.39 202.017 159.215 189.928 134.678 L 189.928 134.678 Z " fill="rgb(126,132,138)"/></g><g><radialGradient id="_rgradient_0" fx="0.2899163050382758" fy="0.3637037210069704" cx="0.5" cy="0.5" r="1" gradientTransform="matrix(135.503,0,0,139.688,110.411,114.76)" gradientUnits="userSpaceOnUse"><stop offset="9.09%" stop-opacity="1" style="stop-color:rgb(209,220,231)"/><stop offset="44.43%" stop-opacity="1" style="stop-color:rgb(207,218,229)"/><stop offset="63.639998%" stop-opacity="1" style="stop-color:rgb(201,211,221)"/><stop offset="74.720001%" stop-opacity="1" style="stop-color:rgb(192,201,210)"/><stop offset="94.06999900000001%" stop-opacity="1" style="stop-color:rgb(169,175,181)"/><stop offset="100%" stop-opacity="1" style="stop-color:rgb(161,166,171)"/></radialGradient><path d=" M 230.378 114.76 C 230.378 114.76 264.152 159.792 232.106 211.306 C 214.472 239.651 181.3 253.091 160.66 254.39 C 140.02 255.689 119.146 234.742 114.87 230.575 C 110.594 226.407 108.05 221.428 113.571 216.719 C 119.092 212.01 150.124 188.429 150.124 188.429 C 150.124 188.429 169.505 189.922 183.902 172.71 C 198.3 155.498 189.928 134.678 189.928 134.678 C 189.928 134.678 191.66 136.554 193.537 137.275 C 195.413 137.998 202.089 138.935 210.586 141.317 C 219.084 143.698 232.94 148.895 237.974 153.116 C 243.007 157.338 242.764 151.393 242.141 147.307 C 238.966 126.451 230.378 114.76 230.378 114.76 Z " fill="url(#_rgradient_0)"/><linearGradient id="_lgradient_2" x1="0.4953063205398453" y1="-0.06742116356667041" x2="0.4972198213613888" y2="0.07026589561340468" gradientTransform="matrix(138.357,0,0,66.572,97.884,70)" gradientUnits="userSpaceOnUse"><stop offset="0%" stop-opacity="1" style="stop-color:rgb(100,127,173)"/><stop offset="37.59%" stop-opacity="1" style="stop-color:rgb(81,111,162)"/><stop offset="100%" stop-opacity="1" style="stop-color:rgb(42,76,138)"/></linearGradient><path d=" M 111.158 128.273 C 111.158 128.273 112.159 126.216 110.346 123.023 C 108.532 119.829 93.982 97.15 98.889 83.872 C 98.889 83.872 123.715 66.84 158.139 70.521 C 192.562 74.201 212.264 91.955 220.924 101.914 C 229.584 111.873 235.719 130.348 236.152 133.235 C 236.585 136.121 235.502 137.708 231.677 135.616 C 227.852 133.523 223.162 132.007 214.429 129.842 C 205.697 127.677 196.027 126.811 192.418 126.595 C 188.81 126.378 186.429 126.595 184.155 123.925 C 181.882 121.255 172.5 107.109 150.85 105.955 C 129.2 104.8 114.91 120.28 111.158 128.273 L 111.158 128.273 Z " fill="url(#_lgradient_2)"/><radialGradient id="_rgradient_1" fx="0.42766112932514055" fy="0.16315486196115514" cx="0.5" cy="0.5" r="0.9915379649265721" gradientTransform="matrix(97.449,0,0,166.918,51.524,88.852)" gradientUnits="userSpaceOnUse"><stop offset="0%" stop-opacity="1" style="stop-color:rgb(147,190,242)"/><stop offset="14.330000000000002%" stop-opacity="1" style="stop-color:rgb(128,179,239)"/><stop offset="43.189999%" stop-opacity="1" style="stop-color:rgb(80,149,232)"/><stop offset="44.850001%" stop-opacity="1" style="stop-color:rgb(77,147,232)"/><stop offset="60.089999000000006%" stop-opacity="1" style="stop-color:rgb(77,146,229)"/><stop offset="71.619999%" stop-opacity="1" style="stop-color:rgb(79,143,219)"/><stop offset="81.900001%" stop-opacity="1" style="stop-color:rgb(81,137,203)"/><stop offset="85.74000000000001%" stop-opacity="1" style="stop-color:rgb(82,134,195)"/></radialGradient><path d=" M 136.948 186.62 C 136.948 186.62 113.052 202.587 103.742 212.194 C 99.765 216.298 95.569 218.067 104.121 228.784 C 112.673 239.501 129.019 252.708 143.524 254.115 C 143.524 254.115 145.978 255.594 148.973 255.667 C 148.973 255.667 114.044 258.517 85.755 234.269 C 57.465 210.021 43.214 170.252 56.599 133.812 C 65.394 109.872 80.198 97.368 86.963 92.117 C 90.619 89.28 93.838 88.852 93.838 88.852 C 93.838 88.852 86.224 91.378 88.786 102.311 C 90.996 111.744 95.786 119.126 98.167 121.724 C 100.549 124.322 107.116 132.08 107.333 136.554 C 107.549 141.029 103.508 154.452 113.178 169.03 C 122.848 183.608 136.948 186.62 136.948 186.62 L 136.948 186.62 Z " fill="url(#_rgradient_1)"/><radialGradient id="_rgradient_2" fx="0.49421259295295017" fy="0.3531168750000002" cx="0.5" cy="0.5" r="1" gradientTransform="matrix(74.766,0,0,69.281,112.456,114.182)" gradientUnits="userSpaceOnUse"><stop offset="0%" stop-opacity="1" style="stop-color:rgb(177,222,244)"/><stop offset="12.02%" stop-opacity="1" style="stop-color:rgb(155,206,242)"/><stop offset="36.980000000000004%" stop-opacity="1" style="stop-color:rgb(98,165,236)"/><stop offset="44.240001%" stop-opacity="1" style="stop-color:rgb(80,152,234)"/><stop offset="69.090003%" stop-opacity="1" style="stop-color:rgb(11,134,210)"/><stop offset="73.17%" stop-opacity="1" style="stop-color:rgb(15,127,197)"/><stop offset="80.779999%" stop-opacity="1" style="stop-color:rgb(24,109,162)"/><stop offset="91.00000299999999%" stop-opacity="1" style="stop-color:rgb(39,79,105)"/><stop offset="100%" stop-opacity="1" style="stop-color:rgb(54,50,50)"/></radialGradient><ellipse vector-effect="non-scaling-stroke" cx="149.83926720576167" cy="148.82263522230457" rx="37.38293572381377" ry="34.64029070708065" fill="url(#_rgradient_2)"/></g><g><g opacity="0.5"><path d=" M 221.601 102.719 C 223.84 106.612 230.978 119.258 232.615 125.08 C 234.564 132.008 235.863 136.446 232.182 134.281 C 228.502 132.116 205.228 126.595 197.38 126 C 189.531 125.404 185.851 125.404 184.822 123.727 C 184.822 123.727 173.943 105.162 148.071 105.162 C 122.199 105.162 111.483 126.812 111.483 126.812 L 111.717 127.181 C 116.18 118.956 130.146 104.852 150.85 105.955 C 172.5 107.11 181.882 121.255 184.155 123.925 C 186.429 126.596 188.81 126.379 192.418 126.595 C 196.027 126.812 205.697 127.678 214.429 129.843 C 223.162 132.008 227.852 133.523 231.677 135.616 C 235.502 137.709 236.585 136.122 236.152 133.235 C 235.73 130.423 229.902 112.836 221.601 102.719 L 221.601 102.719 Z " fill="rgb(255,255,255)"/></g><g opacity="0.5"><path d=" M 235.213 152.792 C 238.605 155.245 238.605 154.235 238.605 154.235 C 237.957 153.462 237.272 152.739 236.557 152.058 C 230.905 148.204 219.264 143.831 211.447 141.563 C 206.396 140.708 201.966 140.251 199.221 139.478 C 199.221 139.478 194.584 138.576 190.831 135.978 C 190.831 135.978 191.1 137.324 191.324 139.527 C 192.892 146.7 194.035 160.599 183.903 172.711 C 169.506 189.922 150.125 188.43 150.125 188.43 C 150.125 188.43 119.093 212.011 113.572 216.72 C 108.051 221.429 110.595 226.408 114.871 230.575 C 118.65 234.259 135.394 251.045 153.484 254.001 C 154.013 254.053 154.509 254.092 154.964 254.116 C 154.964 254.116 136.706 249.894 126.314 239.827 C 115.922 229.76 108.344 225.105 114.731 219.909 C 121.118 214.713 152.186 189.274 152.186 189.274 C 152.186 189.274 171.404 190.22 185.924 171.196 C 198.03 155.337 191.968 137.638 191.968 137.638 C 191.968 137.638 199.582 141.643 204.976 141.752 C 215.655 141.965 231.822 150.338 235.213 152.792 L 235.213 152.792 Z " fill="rgb(255,255,255)"/></g><path d=" M 241.053 141.399 C 235.998 123.808 234.158 123.375 231.397 116.338 C 234.104 120.939 238.569 128.706 241.053 141.399 Z " fill="rgb(255,255,255)"/><g opacity="0.8"><path d=" M 97.302 120.803 C 97.258 120.715 97.22 120.628 97.178 120.54 C 94.636 117.261 90.722 110.572 88.786 102.311 C 86.609 93.018 91.779 89.801 93.381 89.043 C 86.346 91.27 86.593 96.249 89.075 106.244 C 91.6 116.419 97.302 120.803 97.302 120.803 Z " fill="rgb(255,255,255)"/></g><g opacity="0.5"><path d=" M 104.121 228.784 C 102.591 226.865 101.475 225.238 100.686 223.829 C 100.16 223.278 99.672 223.007 99.413 223.479 C 98.817 224.562 100.657 226.402 100.657 226.402 C 119.277 251.083 142.009 254.764 142.009 254.764 C 138.173 253.725 134.494 252.216 131.03 250.429 C 120.42 245.456 110.262 236.479 104.121 228.784 Z " fill="rgb(255,255,255)"/></g><g opacity="0.6"><path d=" M 153.267 114.471 C 152.028 114.307 150.82 114.218 149.642 114.188 C 145.966 114.205 142.416 114.717 139.064 115.65 C 125.878 119.76 118.735 131.033 118.735 131.033 C 118.735 131.033 130.894 112.123 156.84 115.661 C 181.449 119.017 185.851 143.915 185.851 143.915 C 185.851 143.915 183.991 118.518 153.267 114.471 Z " fill="rgb(255,255,255)"/></g><g opacity="0.6"><path d=" M 106.828 115.661 C 104.013 110.032 96.941 95.78 98.709 85.459 C 98.709 85.459 98.457 85.901 98.145 86.737 C 96.133 98.931 106.418 116.409 109.608 121.772 C 108.919 120.097 107.99 117.988 106.828 115.661 Z " fill="rgb(255,255,255)"/></g></g><g><g opacity="0.51999996"><linearGradient id="_lgradient_3" x1="-0.0000066397252302952126" y1="0.49999867224021965" x2="1.0000024591574925" y2="0.49999867224021965" gradientTransform="matrix(52.823,0,0,15.985,118.979,114.723)" gradientUnits="userSpaceOnUse"><stop offset="0%" stop-opacity="1" style="stop-color:rgb(0,0,0)"/><stop offset="7.539999999999999%" stop-opacity="1" style="stop-color:rgb(0,9,22)"/><stop offset="23.3%" stop-opacity="1" style="stop-color:rgb(0,33,80)"/><stop offset="45.770001%" stop-opacity="1" style="stop-color:rgb(0,70,171)"/><stop offset="52.73%" stop-opacity="1" style="stop-color:rgb(0,82,201)"/><stop offset="99.39%" stop-opacity="1" style="stop-color:rgb(0,0,0)"/></linearGradient><path d=" M 170.373 119.88 C 136.633 103.718 118.979 130.709 118.979 130.709 C 122.01 127.515 132.484 123.131 132.484 123.131 C 146.015 114.255 157.868 120.641 158.951 121.345 C 160.033 122.049 163.768 122.536 166.096 121.453 C 167.837 120.643 170.547 120.712 171.803 120.798 C 171.334 120.482 170.857 120.176 170.373 119.88 Z " fill="url(#_lgradient_3)"/></g><g opacity="0.4"><path d=" M 132.97 122.806 C 132.97 122.806 144.535 116.203 156.804 120.28 C 156.804 120.28 145.437 115.084 132.97 122.806 L 132.97 122.806 Z " fill="rgb(255,255,255)"/></g><g opacity="0.51999996"><linearGradient id="_lgradient_4" x1="0.000015205223657943634" y1="0.4999757476595299" x2="1.0000149986363107" y2="0.4999757476595299" gradientTransform="matrix(20.209,0,0,9.274,132.824,121.069)" gradientUnits="userSpaceOnUse"><stop offset="0.61%" stop-opacity="1" style="stop-color:rgb(177,222,244)"/><stop offset="100%" stop-opacity="0.07" style="stop-color:rgb(177,222,244)"/></linearGradient><path d=" M 153.033 121.615 C 153.033 121.615 142.478 123.023 137.12 128.002 C 131.761 132.982 132.086 128.814 134.468 126.541 C 136.849 124.267 142.965 119.45 153.033 121.615 Z " fill="url(#_lgradient_4)"/></g><g opacity="0.51999996"><linearGradient id="_lgradient_5" x1="0.5013942206058131" y1="0.3565945918508642" x2="0.48102882455297147" y2="1.130479641858836" gradientTransform="matrix(13.717,0,0,31.941,122.555,124.141)" gradientUnits="userSpaceOnUse"><stop offset="0.61%" stop-opacity="1" style="stop-color:rgb(177,222,244)"/><stop offset="100%" stop-opacity="0.07" style="stop-color:rgb(177,222,244)"/></linearGradient><path d=" M 136.272 124.141 C 136.272 124.141 126.891 131.358 127.035 147.812 C 127.179 164.266 122.632 151.493 122.56 149.111 C 122.488 146.729 122.921 127.822 136.272 124.141 Z " fill="url(#_lgradient_5)"/></g><g opacity="0.28999999"><linearGradient id="_lgradient_6" x1="0.5111087324210806" y1="0.6487632404139911" x2="0.5942203422191297" y2="0.9017092614977082" gradientTransform="matrix(39.944,0,0,38.661,116.787,139.477)" gradientUnits="userSpaceOnUse"><stop offset="0.61%" stop-opacity="1" style="stop-color:rgb(100,127,173)"/><stop offset="22.509999999999998%" stop-opacity="1" style="stop-color:rgb(92,113,151)"/><stop offset="67.940003%" stop-opacity="1" style="stop-color:rgb(70,77,94)"/><stop offset="100%" stop-opacity="1" style="stop-color:rgb(54,50,50)"/></linearGradient><path d=" M 117.653 139.477 C 117.653 139.477 114.982 154.812 121.983 158.854 C 121.983 158.854 131.401 180.72 156.731 170.436 C 156.731 170.436 153.087 174.658 152.293 177.689 C 152.293 177.689 110.292 185.122 117.653 139.477 Z " fill="url(#_lgradient_6)"/></g><g opacity="0.38000039"><linearGradient id="_lgradient_7" x1="0.14238807223855554" y1="0.4244806868664499" x2="1.5383562728745424" y2="0.8444721670368465" gradientTransform="matrix(36.084,0,0,16.824,120.647,158.004)" gradientUnits="userSpaceOnUse"><stop offset="0.61%" stop-opacity="1" style="stop-color:rgb(100,127,173)"/><stop offset="22.509999999999998%" stop-opacity="1" style="stop-color:rgb(92,113,151)"/><stop offset="67.940003%" stop-opacity="1" style="stop-color:rgb(70,77,94)"/><stop offset="100%" stop-opacity="1" style="stop-color:rgb(54,50,50)"/></linearGradient><path d=" M 156.731 170.436 C 131.401 180.72 121.983 158.854 121.983 158.854 C 121.495 158.613 121.051 158.328 120.647 158.004 C 126.477 178.972 148.723 174.976 154.349 173.601 C 155.525 171.835 156.731 170.436 156.731 170.436 Z " fill="url(#_lgradient_7)"/></g><g opacity="0.4"><path d=" M 121.983 158.854 C 121.983 158.854 116.21 154.632 117.545 141.065 C 117.545 141.065 114.983 154.091 121.983 158.854 Z " fill="rgb(255,255,255)"/></g><g opacity="0.38000039"><linearGradient id="_lgradient_8" x1="0.22526605504587138" y1="0.3380427906976746" x2="0.3982984425727384" y2="0.8030673321761301" gradientTransform="matrix(23.599,0,0,46.548,161.386,129.626)" gradientUnits="userSpaceOnUse"><stop offset="0.61%" stop-opacity="1" style="stop-color:rgb(100,176,173)"/><stop offset="22.050000999999998%" stop-opacity="1" style="stop-color:rgb(92,154,151)"/><stop offset="66.530001%" stop-opacity="1" style="stop-color:rgb(71,97,96)"/><stop offset="100%" stop-opacity="1" style="stop-color:rgb(54,50,50)"/></linearGradient><path d=" M 161.386 176.174 C 161.386 176.174 163.551 167.405 172.211 160.694 C 180.871 153.982 179.897 138.719 172.428 129.626 C 172.428 129.626 184.119 136.337 184.985 154.957 C 184.985 154.957 177.84 172.818 161.386 176.174 Z " fill="url(#_lgradient_8)"/></g><g opacity="0.13999999"><path d=" M 176.534 133.115 C 174.566 131.008 172.93 129.935 172.529 129.687 C 172.578 129.773 172.63 129.859 172.679 129.947 C 179.914 139.074 180.771 154.06 172.212 160.694 C 170.193 162.258 168.532 163.934 167.165 165.584 C 166.605 166.342 166.258 166.756 166.258 166.756 C 166.258 166.756 179.248 164.7 180.547 149.436 C 181.228 141.43 178.901 136.242 176.534 133.115 Z " fill="rgb(255,255,255)"/></g><g opacity="0.4"><path d=" M 172.572 129.842 C 172.572 129.842 185.779 147.379 172.392 160.658 C 172.392 160.658 184.768 149.472 172.572 129.842 Z " fill="rgb(255,255,255)"/></g></g><g><g opacity="0.5"><linearGradient id="_lgradient_9" x1="0.0000037335204137733946" y1="0.4999990484003281" x2="1.0000021944418016" y2="0.4999990484003281" gradientTransform="matrix(39.464,0,0,131.958,56.972,97.367)" gradientUnits="userSpaceOnUse"><stop offset="0%" stop-opacity="1" style="stop-color:rgb(255,255,255)"/><stop offset="76.969999%" stop-opacity="0" style="stop-color:rgb(255,255,255)"/><stop offset="100%" stop-opacity="0" style="stop-color:rgb(255,255,255)"/></linearGradient><path d=" M 73.053 112.306 C 76.574 107.023 82.796 100.56 85.719 97.367 C 85.719 97.367 55.95 127.677 60.641 169.03 C 65.059 207.979 96.436 227.34 96.436 227.34 L 91.131 229.325 C 91.131 229.325 28.312 179.432 73.053 112.306 L 73.053 112.306 Z " fill="url(#_lgradient_9)"/></g><g opacity="0.5"><path d=" M 86.72 101.318 C 86.72 101.318 83.517 102.744 80.811 106.461 C 78.105 110.177 77.599 112.919 77.635 115.734 C 77.672 118.548 77.888 121.146 80.414 122.012 C 82.94 122.878 83.445 119.883 86.26 118.873 C 89.074 117.863 90.553 118.621 90.842 119.342 C 91.131 120.064 92.142 122.084 96.291 121.615 C 96.291 121.615 86.747 113.641 86.72 101.318 L 86.72 101.318 Z " fill="rgb(255,255,255)"/></g><g opacity="0.5"><path d=" M 103.724 105.631 C 103.724 105.631 107.369 92.604 98.763 92.929 C 98.763 92.929 100.008 98.991 101.469 102.076 C 102.931 105.161 103.057 105.505 103.724 105.631 Z " fill="rgb(255,255,255)"/></g><g opacity="0.5"><path d=" M 117.328 85.171 C 117.328 85.171 116.029 82.573 110.797 85.424 C 105.565 88.274 103.905 90.006 104.735 92.821 C 105.565 95.635 107.802 95.31 111.05 92.423 C 114.297 89.537 119.025 87.913 117.328 85.171 Z " fill="rgb(255,255,255)"/></g><g opacity="0.3"><linearGradient id="_lgradient_10" x1="0.5120881830487067" y1="0.7327644796051109" x2="0.9165547166875105" y2="0.9792965082382714" gradientTransform="matrix(112.408,0,0,28.247,98.384,73.131)" gradientUnits="userSpaceOnUse"><stop offset="0.61%" stop-opacity="1" style="stop-color:rgb(255,255,255)"/><stop offset="100%" stop-opacity="0.07" style="stop-color:rgb(177,222,244)"/></linearGradient><path d=" M 210.694 97.638 C 210.694 97.638 161.819 48.005 98.384 90.006 C 98.384 90.006 98.709 91.413 99.954 90.656 C 101.199 89.898 121.117 75.717 149.046 76.258 C 176.974 76.799 194.836 90.223 198.516 93.687 C 202.197 97.151 211.867 106.568 210.694 97.638 Z " fill="url(#_lgradient_10)"/></g><g><g opacity="0.5"><path d=" M 61.795 200.638 C 61.795 200.638 61.744 200.586 61.65 200.475 C 61.745 200.596 61.795 200.638 61.795 200.638 Z " fill="rgb(255,255,255)"/></g><g opacity="0.5"><path d=" M 85.683 94.336 C 87.217 92.611 88.4 91.399 89.176 90.638 C 88.474 91.039 87.729 91.522 86.964 92.117 C 83.609 94.721 78.277 99.11 72.683 105.79 C 70.017 109.386 67.136 113.763 64.105 119.09 C 55.825 133.64 52.384 146.531 51.656 157.768 C 51.474 161.036 51.488 164.297 51.683 167.54 C 52.039 172.574 52.894 177.209 54.001 181.441 C 57.579 195.114 60.928 199.62 61.65 200.474 C 60.954 199.588 57.83 194.429 54.145 170.039 C 49.96 142.326 68.074 115.264 71.033 110.501 C 73.992 105.737 82.796 97.584 85.683 94.336 L 85.683 94.336 Z " fill="rgb(255,255,255)"/></g></g><g style="opacity:0.4;"><g opacity="0.4"><radialGradient id="_rgradient_3" fx="0.8112262124451994" fy="-0.9687908562170116" cx="0.5" cy="0.5" r="1" gradientTransform="matrix(88.694,0,0,55.348,60.28,200.422)" gradientUnits="userSpaceOnUse"><stop offset="0%" stop-opacity="1" style="stop-color:rgb(255,255,255)"/><stop offset="73.900002%" stop-opacity="0.39039999" style="stop-color:rgb(255,255,255)"/><stop offset="86.059999%" stop-opacity="0.28999999" style="stop-color:rgb(255,255,255)"/><stop offset="88.029999%" stop-opacity="0.33379999" style="stop-color:rgb(255,255,255)"/><stop offset="100%" stop-opacity="0.60000002" style="stop-color:rgb(255,255,255)"/></radialGradient><path d=" M 148.974 255.666 C 145.979 255.594 143.525 254.114 143.525 254.114 C 133.56 253.148 122.728 246.613 114.15 239.143 C 79.489 228.011 60.28 200.422 60.28 200.422 C 60.33 200.668 60.385 200.908 60.437 201.153 C 66.383 213.729 75.066 225.107 85.755 234.269 C 114.045 258.517 148.974 255.666 148.974 255.666 Z " fill="url(#_rgradient_3)"/></g><g opacity="0.4"><radialGradient id="_rgradient_4" fx="0.0286223005565861" fy="-0.30953549957792714" cx="0.5" cy="0.5" r="1" gradientTransform="matrix(116.694,0,0,82.201,128.891,172.246)" gradientUnits="userSpaceOnUse"><stop offset="0%" stop-opacity="1" style="stop-color:rgb(255,255,255)"/><stop offset="73.900002%" stop-opacity="0.39039999" style="stop-color:rgb(255,255,255)"/><stop offset="86.059999%" stop-opacity="0.28999999" style="stop-color:rgb(255,255,255)"/><stop offset="88.029999%" stop-opacity="0.33379999" style="stop-color:rgb(255,255,255)"/><stop offset="100%" stop-opacity="0.60000002" style="stop-color:rgb(255,255,255)"/></radialGradient><path d=" M 245.585 172.246 C 239.125 187.975 212.473 234.628 157.922 242.639 C 147.485 244.172 137.794 243.983 128.891 242.619 C 137.62 248.947 149.176 255.112 160.66 254.389 C 181.3 253.09 214.472 239.65 232.106 211.306 C 240.643 197.583 244.507 184.321 245.585 172.246 Z " fill="url(#_rgradient_4)"/></g></g><g opacity="0.6"><path d=" M 113.179 169.029 C 103.508 154.451 107.55 141.028 107.333 136.554 C 107.238 134.591 105.921 131.997 104.271 129.483 C 101.646 135.322 100.188 141.763 100.188 148.534 C 100.188 167.838 112.016 184.474 129.059 192.064 C 133.665 188.814 136.949 186.62 136.949 186.62 C 136.949 186.62 122.849 183.607 113.179 169.029 L 113.179 169.029 Z " fill="rgb(255,255,255)"/></g><g opacity="0.6"><path d=" M 194.054 126.709 C 185.827 111.217 169.116 100.614 149.84 100.614 C 133.019 100.614 118.155 108.688 109.173 121.038 C 109.715 121.953 110.125 122.634 110.346 123.022 C 112.16 126.216 111.158 128.272 111.158 128.272 C 114.911 120.28 129.2 104.8 150.85 105.954 C 172.501 107.109 181.882 121.254 184.156 123.924 C 186.429 126.595 188.81 126.378 192.419 126.594 C 192.872 126.622 193.422 126.66 194.054 126.709 L 194.054 126.709 Z " fill="rgb(255,255,255)"/></g><g opacity="0.6"><path d=" M 149.839 196.453 C 177.261 196.453 199.49 174.999 199.49 148.534 C 199.49 145.065 199.105 141.684 198.38 138.424 C 196.038 137.936 194.344 137.585 193.537 137.275 C 191.66 136.554 189.928 134.678 189.928 134.678 C 189.928 134.678 198.3 155.498 183.902 172.71 C 169.505 189.922 150.124 188.429 150.124 188.429 C 150.124 188.429 146.09 191.494 140.672 195.636 C 143.643 196.17 146.707 196.453 149.839 196.453 L 149.839 196.453 Z " fill="rgb(255,255,255)"/></g></g><g><g opacity="0.21000001"><path d=" M 244.848 172.277 C 244.848 172.277 243.549 160.856 234.997 160.153 C 234.997 160.153 238.136 200.205 193.717 226.114 C 193.717 226.114 202.234 236.072 198.408 241.99 C 198.408 241.99 200.356 234.918 192.202 225.825 C 192.202 225.825 233.806 207.242 234.564 159.287 C 234.564 159.287 243.873 159.575 244.848 172.277 L 244.848 172.277 Z " fill="rgb(0,0,0)"/></g><g opacity="0.81999966"><path d=" M 198.841 241.99 C 198.841 241.99 202.161 237.156 193.717 226.114 C 193.717 226.114 234.708 205.546 234.997 160.153 C 234.997 160.153 242.574 159.719 244.848 172.277 C 244.848 172.277 241.275 160.947 235.574 161.236 C 235.574 161.236 238.894 200.134 194.944 225.717 C 194.944 225.717 203.984 237.444 198.841 241.99 L 198.841 241.99 Z " fill="rgb(217,221,226)"/></g><g opacity="0.21000001"><path d=" M 186.771 248.161 C 186.771 248.161 188.305 238.815 181.521 231.238 C 181.521 231.238 169.253 236.001 160.665 236.867 C 160.665 236.867 162.613 246.898 172.067 252.816 C 172.067 252.816 164.995 248.63 161.964 237.877 C 161.964 237.877 174.449 235.929 181.377 232.176 C 181.377 232.176 186.248 235.134 186.771 248.161 Z " fill="rgb(0,0,0)"/></g><g opacity="0.81999966"><path d=" M 172.067 252.816 C 172.067 252.816 164.057 245.382 162.974 238.382 C 162.974 238.382 177.173 235.685 181.692 232.415 C 181.692 232.415 186.103 240.041 186.771 248.161 C 186.771 248.161 186.789 236.867 181.377 232.176 C 181.377 232.176 170.84 236.867 161.964 237.877 C 161.964 237.877 164.994 248.702 172.067 252.816 L 172.067 252.816 Z " fill="rgb(217,221,226)"/></g></g></g><g filter="url(#kxm6c7dFEAB45QzHpXFBvywYL9b6TSlP)"><path d=" M 123.549 66.446 C 134.258 56.171 147.579 39.209 135.382 26.498 C 134.464 25.54 133.374 24.579 132.281 23.788 L 99.444 2.288 C 92.117 -2.386 88.221 -3.831 72.421 0.962 C 60.056 4.632 35.352 14.96 29.954 20.139 C 24.992 24.901 29.693 32.763 23.773 38.444 C 18.027 43.957 9.254 43.179 3.943 48.274 C -1.193 53.203 -1.16 59.86 3.162 69.592 C 3.162 69.592 15.487 96.727 17.286 100.519 C 17.613 101.208 18.198 101.818 18.699 102.34 C 26.217 110.176 81.938 106.206 123.549 66.446 Z  M 141.965 30.047 C 150.128 35.592 150.88 36.376 151.715 37.246 C 163.16 49.173 156.102 68.655 138.428 85.613 C 98.467 123.956 41.168 134.122 26.299 118.626 C 24.21 116.449 22.641 113.942 21.59 111.104 C 7.893 125.584 -8.145 145.989 7.56 162.357 C 33.373 189.258 128.759 161.276 179.254 112.824 C 217.909 75.734 210.868 48.879 197.67 35.123 C 187.224 24.411 165.959 21.071 141.965 30.047 Z " fill="rgb(238,0,0)"/><path d=" M 141.965 30.047 C 150.128 35.592 150.88 36.376 151.715 37.246 C 163.16 49.173 156.102 68.655 138.428 85.613 C 98.467 123.956 41.168 134.122 26.299 118.626 C 24.21 116.449 22.641 113.942 21.59 111.104 L 17.289 100.348 C 17.616 101.038 18.118 101.56 18.702 102.17 C 26.221 110.005 82.025 106.123 123.553 66.276 C 134.261 56.001 147.582 39.038 135.386 26.327 C 134.467 25.37 133.378 24.408 132.285 23.618 L 141.965 30.047 Z " fill="rgb(0,0,0)"/></g><defs><filter id="kxm6c7dFEAB45QzHpXFBvywYL9b6TSlP" x="-200%" y="-200%" width="400%" height="400%" filterUnits="objectBoundingBox" color-interpolation-filters="sRGB"><feGaussianBlur xmlns="http://www.w3.org/2000/svg" in="SourceGraphic" stdDeviation="2.146804531419514"/><feOffset xmlns="http://www.w3.org/2000/svg" dx="10" dy="10" result="pf_100_offsetBlur"/><feFlood xmlns="http://www.w3.org/2000/svg" flood-color="#000000" flood-opacity="0.65"/><feComposite xmlns="http://www.w3.org/2000/svg" in2="pf_100_offsetBlur" operator="in" result="pf_100_dropShadow"/><feBlend xmlns="http://www.w3.org/2000/svg" in="SourceGraphic" in2="pf_100_dropShadow" mode="normal"/></filter></defs></g></svg>