<?xml version="1.0" encoding="UTF-8" standalone="no"?><!-- Generator: Gravit.io --><svg xmlns="http://www.w3.org/2000/svg" xmlns:xlink="http://www.w3.org/1999/xlink" style="isolation:isolate" viewBox="0 0 1024 1024" width="1024pt" height="1024pt"><defs><clipPath id="_clipPath_laDm3XUkVlfWXi2Kg69A8d5oGNfAVHrD"><rect width="1024" height="1024"/></clipPath></defs><g clip-path="url(#_clipPath_laDm3XUkVlfWXi2Kg69A8d5oGNfAVHrD)"><g><g><defs><filter id="G2F8p57FxzPjtrwB9bSjvsoMMOXtDn6r" x="-200%" y="-200%" width="400%" height="400%" filterUnits="objectBoundingBox" color-interpolation-filters="sRGB"><feGaussianBlur xmlns="http://www.w3.org/2000/svg" stdDeviation="2.146804531419514" result="_out_u33aTHK8vBMe8fOXSreeaTOf1d9yzJw6"/><feGaussianBlur xmlns="http://www.w3.org/2000/svg" stdDeviation="20.566387410998946" in="_out_u33aTHK8vBMe8fOXSreeaTOf1d9yzJw6"/></filter></defs><g filter="url(#G2F8p57FxzPjtrwB9bSjvsoMMOXtDn6r)"><path d=" M 723.035 338.44 C 723.035 338.44 668.339 483.329 661.883 500.44 C 659.535 482.84 629.508 209.44 629.508 209.44 C 494.515 209.44 389.476 253.866 351.326 338.44 C 351.326 338.44 293.595 465.84 285.377 483.44 C 284.791 467.307 275.785 346.44 275.785 346.44 C 267.567 242.801 92.148 209.44 0 209.44 L 121.105 797.44 C 292.571 813.44 379.76 756.014 419.672 671.44 C 419.672 671.44 464.113 582.75 467.635 574.44 C 468.221 582.261 518 813.94 518 813.94 C 686.932 823.145 813.848 728.081 854.932 646.44 L 1024 216.44 C 883.723 216.44 761.185 253.377 723.035 338.44 Z " fill="rgb(244,244,244)"/></g><path d=" M 730.399 395.553 C 730.399 395.553 655.539 591.386 649.439 607.552 C 647.221 590.924 592.323 239.44 592.323 239.44 C 464.783 239.44 396.577 315.187 360.533 395.091 C 360.533 395.091 269.591 591.386 261.827 608.014 C 261.273 592.772 247.965 397.4 247.965 397.4 C 240.201 299.483 132.624 239.902 45.564 239.902 L 150.924 772.44 C 284.563 771.978 356.651 696.693 394.359 616.789 C 394.359 616.789 474.764 443.587 478.092 435.736 C 478.646 443.125 535.762 772.44 535.762 772.44 C 669.956 772.44 742.044 701.774 780.86 624.641 L 968.843 239.902 C 836.312 239.902 766.442 315.187 730.399 395.553 Z " fill="rgb(0,0,0)"/></g></g><text transform="matrix(1,0,0,1,493.5,519.759)" style="font-family:'Open Sans';font-weight:400;font-size:20px;font-style:normal;fill:#000000;stroke:none;">854</text><text transform="matrix(1,0,0,1,493.5,519.759)" style="font-family:'Open Sans';font-weight:400;font-size:20px;font-style:normal;fill:#000000;stroke:none;">854</text></g></svg>